#!OML:ASF X:\für Bonn\!DataBase\2005_08_11_Bastian_Final\c3d\Bastian.ASF
:FULLY-SPECIFIED
:DEGREES
207
root 10.5724 16.8848 -2.00342 889.865 81.1379 -186.3
lowerback 39.7064 -5.02523 11.6813
upperback 17.4649 1.41817 4.44647
thorax 0.457063 2.47962 -1.62704
lowerneck -12.5204 -8.71743 -3.68415
upperneck -19.5768 -10.1156 4.00883
head -3.97139 -4.47207 1.86424
rclavicle 1.11319e-014 -3.18055e-015
rhumerus -5.19406 24.5014 -70.6144
rradius 34.3403
rwrist 0.267601
rhand -18.1928 7.02743
rfingers 7.12502
rthumb 8.08423 -22.7979
lclavicle 1.11319e-014 -3.18055e-015
lhumerus -12.2086 -33.9205 88.0216
lradius 40.8914
lwrist 23.6041
lhand -12.2856 -9.50398
lfingers 7.12502
lthumb 13.7818 20.0195
rfemur -12.1151 -6.17383 20.1981
rtibia 48.0818
rfoot -23.5567 -12.1773
rtoes -6.60771
lfemur -28.3444 0.522788 -21.4113
ltibia 61.7592
lfoot -7.45013 -4.79277
ltoes -13.5419
208
root 10.7054 16.919 -1.98527 890.646 80.9112 -185.448
lowerback 38.8737 -4.76432 11.4273
upperback 17.3445 1.43401 4.32826
thorax 0.558193 2.45385 -1.64716
lowerneck -12.3355 -8.67602 -3.61924
upperneck -19.4181 -10.0736 4.06171
head -3.94424 -4.46467 1.87425
rclavicle -6.99722e-014 -3.97569e-014
rhumerus -6.28147 24.5937 -71.6845
rradius 34.3779
rwrist 0.0362989
rhand -18.3063 6.77703
rfingers 7.12502
rthumb 7.97468 -23.0525
lclavicle -6.99722e-014 -3.97569e-014
lhumerus -13.0633 -33.1994 88.4038
lradius 40.3419
lwrist 23.8001
lhand -12.6052 -9.59221
lfingers 7.12502
lthumb 13.4737 19.952
rfemur -10.9845 -6.15198 20.4294
rtibia 47.0195
rfoot -23.4984 -12.4545
rtoes -6.53661
lfemur -28.2459 0.943941 -21.2497
ltibia 60.499
lfoot -7.30623 -4.7512
ltoes -15.6689
209
root 10.8395 16.953 -1.96712 891.465 80.6635 -184.608
lowerback 38.0535 -4.50746 11.2023
upperback 17.1835 1.46161 4.21398
thorax 0.621166 2.42978 -1.68034
lowerneck -12.1401 -8.64635 -3.51492
upperneck -19.2811 -10.0559 4.07273
head -3.9308 -4.46998 1.86516
rclavicle 5.08889e-014 6.36111e-015
rhumerus -7.3998 24.5889 -72.7323
rradius 34.3927
rwrist -0.16537
rhand -18.3793 6.63172
rfingers 7.12502
rthumb 7.90423 -23.2005
lclavicle 5.08889e-014 6.36111e-015
lhumerus -13.8975 -32.5239 88.7697
lradius 39.722
lwrist 23.9092
lhand -12.9039 -9.73632
lfingers 7.12502
lthumb 13.1858 19.8267
rfemur -9.89857 -6.08645 20.6832
rtibia 45.9421
rfoot -23.4657 -12.7368
rtoes -6.1745
lfemur -28.1957 1.35823 -21.0746
ltibia 59.1742
lfoot -7.22437 -4.80186
ltoes -17.3743
210
root 10.9753 16.9854 -1.95168 892.143 80.4073 -183.875
lowerback 37.2857 -4.28567 10.9391
upperback 17.0242 1.45248 4.09963
thorax 0.672177 2.38602 -1.68091
lowerneck -11.9546 -8.5904 -3.37169
upperneck -19.1689 -10.0125 4.00445
head -3.93278 -4.46081 1.82475
rclavicle -6.36111e-014 -5.56597e-014
rhumerus -8.44532 24.6034 -73.7353
rradius 34.2964
rwrist -0.314158
rhand -18.498 6.62839
rfingers 7.12502
rthumb 7.78973 -23.2081
lclavicle -6.36111e-014 -5.56597e-014
lhumerus -14.6735 -31.6924 89.1191
lradius 39.0457
lwrist 23.9794
lhand -13.2039 -9.75034
lfingers 7.12502
lthumb 12.8967 19.8312
rfemur -8.75658 -6.07285 20.9028
rtibia 44.8426
rfoot -23.4214 -12.9662
rtoes -5.94303
lfemur -28.0941 1.71823 -20.9166
ltibia 57.787
lfoot -7.23173 -4.8836
ltoes -18.315
211
root 11.1125 17.0169 -1.93888 892.793 80.1213 -183.196
lowerback 36.3856 -4.06242 10.7059
upperback 16.9644 1.43265 4.00945
thorax 0.731578 2.34481 -1.71403
lowerneck -11.7862 -8.5591 -3.19196
upperneck -19.0401 -10.0108 3.8924
head -3.92878 -4.47365 1.76199
rclavicle -5.08889e-014 -3.02153e-014
rhumerus -9.51743 24.4796 -74.7325
rradius 34.214
rwrist -0.387114
rhand -18.6139 6.5387
rfingers 7.12502
rthumb 7.67785 -23.3019
lclavicle -5.08889e-014 -3.02153e-014
lhumerus -15.3939 -30.821 89.4628
lradius 38.3383
lwrist 23.9003
lhand -13.4989 -9.74809
lfingers 7.12502
lthumb 12.6122 19.8512
rfemur -7.63634 -6.10168 21.1079
rtibia 43.7216
rfoot -23.3417 -13.2
rtoes -5.7428
lfemur -28.0108 2.03915 -20.7756
ltibia 56.3542
lfoot -7.3001 -4.98401
ltoes -18.3354
212
root 11.2499 17.0457 -1.9282 893.178 79.8182 -182.784
lowerback 35.5759 -3.85904 10.4484
upperback 16.8164 1.41066 3.88414
thorax 0.819734 2.29812 -1.72142
lowerneck -11.5628 -8.52066 -3.04214
upperneck -18.9709 -9.98721 3.86685
head -3.95058 -4.47576 1.73799
rclavicle -3.81667e-014 2.06736e-014
rhumerus -10.4955 24.36 -75.6597
rradius 34.0917
rwrist -0.45819
rhand -18.6188 6.44884
rfingers 7.12502
rthumb 7.67308 -23.392
lclavicle -3.81667e-014 2.06736e-014
lhumerus -16.049 -29.8464 89.7513
lradius 37.5985
lwrist 23.7895
lhand -13.7095 -9.69416
lfingers 7.12502
lthumb 12.4092 19.9175
rfemur -6.49978 -6.12165 21.2698
rtibia 42.5874
rfoot -23.2858 -13.4454
rtoes -5.63539
lfemur -27.9267 2.34885 -20.681
ltibia 54.878
lfoot -7.4242 -5.13831
ltoes -17.5584
213
root 11.3881 17.0746 -1.91896 893.685 79.5214 -182.26
lowerback 34.7472 -3.65467 10.1872
upperback 16.6689 1.39468 3.79242
thorax 0.922319 2.25262 -1.69165
lowerneck -11.2985 -8.48822 -3.054
upperneck -18.8356 -9.95048 3.97518
head -3.93918 -4.46914 1.78326
rclavicle -7.4743e-014 -6.99722e-014
rhumerus -11.4317 24.254 -76.5105
rradius 33.9523
rwrist -0.551641
rhand -18.5808 6.31957
rfingers 7.12502
rthumb 7.70978 -23.5199
lclavicle -7.4743e-014 -6.99722e-014
lhumerus -16.6921 -28.8596 90.0506
lradius 36.8744
lwrist 23.7071
lhand -13.9428 -9.57083
lfingers 7.12502
lthumb 12.1843 20.0543
rfemur -5.37691 -6.14491 21.4531
rtibia 41.4583
rfoot -23.2309 -13.6391
rtoes -5.22717
lfemur -27.844 2.62196 -20.5663
ltibia 53.3595
lfoot -7.61359 -5.3004
ltoes -17.2061
214
root 11.5272 17.0993 -1.91131 894.178 79.2186 -181.767
lowerback 33.8739 -3.45248 9.95878
upperback 16.5268 1.38469 3.68673
thorax 1.05694 2.21409 -1.69257
lowerneck -10.9936 -8.4542 -3.09135
upperneck -18.6869 -9.903 4.18098
head -3.92353 -4.4609 1.86628
rclavicle -1.11319e-014 -6.99722e-014
rhumerus -12.2861 24.1281 -77.3451
rradius 33.7744
rwrist -0.617901
rhand -18.4758 6.05244
rfingers 7.12502
rthumb 7.8111 -23.7833
lclavicle -1.11319e-014 -6.99722e-014
lhumerus -17.3013 -27.9317 90.3102
lradius 36.1733
lwrist 23.6658
lhand -14.2554 -9.24933
lfingers 7.12502
lthumb 11.8828 20.3935
rfemur -4.28316 -6.18933 21.639
rtibia 40.3301
rfoot -23.1488 -13.8727
rtoes -5.16876
lfemur -27.7715 2.86424 -20.4636
ltibia 51.8064
lfoot -7.78491 -5.46003
ltoes -16.7715
215
root 11.6659 17.122 -1.90487 894.482 78.9117 -181.462
lowerback 33.0437 -3.25198 9.69051
upperback 16.3794 1.37503 3.57455
thorax 1.17726 2.17297 -1.67862
lowerneck -10.7858 -8.42764 -3.08348
upperneck -18.4521 -9.87309 4.34486
head -3.86392 -4.46411 1.91959
rclavicle -4.77083e-014 -4.29375e-014
rhumerus -13.0418 24.1092 -78.1371
rradius 33.5701
rwrist -0.800604
rhand -18.3268 5.71861
rfingers 7.12502
rthumb 7.95491 -24.1117
lclavicle -4.77083e-014 -4.29375e-014
lhumerus -17.9126 -26.983 90.5263
lradius 35.5116
lwrist 23.6843
lhand -14.5235 -8.89845
lfingers 7.12502
lthumb 11.6243 20.7591
rfemur -3.18882 -6.21692 21.7896
rtibia 39.198
rfoot -23.0554 -14.0666
rtoes -4.85731
lfemur -27.6653 3.07588 -20.399
ltibia 50.2239
lfoot -7.94272 -5.61168
ltoes -16.6099
216
root 11.8069 17.1481 -1.89902 895.078 78.6098 -180.865
lowerback 32.2306 -3.06072 9.4864
upperback 16.2061 1.38096 3.47459
thorax 1.27525 2.14035 -1.68789
lowerneck -10.5667 -8.41389 -3.0621
upperneck -18.1564 -9.86919 4.49875
head -3.78469 -4.48345 1.96502
rclavicle -3.02153e-014 -1.27222e-014
rhumerus -13.7692 23.9609 -78.9016
rradius 33.277
rwrist -0.814118
rhand -18.0902 5.45428
rfingers 7.12502
rthumb 8.18325 -24.3672
lclavicle -3.02153e-014 -1.27222e-014
lhumerus -18.5532 -26.1261 90.7271
lradius 34.8775
lwrist 23.8032
lhand -14.6494 -8.44057
lfingers 7.12502
lthumb 11.5029 21.2238
rfemur -2.08317 -6.23822 22.0146
rtibia 38.0446
rfoot -22.9805 -14.2681
rtoes -4.48559
lfemur -27.5811 3.27681 -20.2561
ltibia 48.6478
lfoot -7.98919 -5.77901
ltoes -16.5027
217
root 11.9488 17.1745 -1.89432 895.543 78.3093 -180.437
lowerback 31.4349 -2.85797 9.26668
upperback 15.9979 1.40123 3.36785
thorax 1.3369 2.10951 -1.69989
lowerneck -10.3677 -8.42496 -3.04383
upperneck -17.8107 -9.90126 4.65844
head -3.68262 -4.52186 2.00907
rclavicle -9.54166e-015 -5.08889e-014
rhumerus -14.5715 23.8486 -79.6443
rradius 33.0697
rwrist -0.909579
rhand -17.7854 5.07496
rfingers 7.12502
rthumb 8.47741 -24.7349
lclavicle -9.54166e-015 -5.08889e-014
lhumerus -19.2102 -25.3028 90.9103
lradius 34.224
lwrist 23.9053
lhand -14.7046 -8.05373
lfingers 7.12502
lthumb 11.4497 21.6136
rfemur -1.00277 -6.24318 22.2189
rtibia 36.8723
rfoot -22.8625 -14.5018
rtoes -4.19195
lfemur -27.5456 3.40769 -20.1181
ltibia 47.0877
lfoot -7.97543 -5.90627
ltoes -15.7162
